# xmcd
#
# Track frame offsets: 
#        150
#        16808
#        43123
#        62986
#        73628
#        98443
#        113199
#        126190
#        143439
#        162236
#        176795
#        198434
#        219116
#        241235
#        263454
#        278312
#        301684
#
# Disc length: 4248 seconds
#
# Revision: 0
# Processed by: cddbd v1.5.2PL0 Copyright (c) Steve Scherf et al.
# Submitted via: ExactAudioCopy v1.0b3
#
DISCID=da109611
DTITLE=Różni wykonawcy - Las Woda and Blues 2016
DYEAR=2017
DGENRE=Blues
TTITLE0=JJ Band - Las Woda Blues
TTITLE1=Tandeta Blues Band - Blues o mediach
TTITLE2=Slow ride - Dlaczego
TTITLE3=Lubos Bena/ Bonzo Radvanyi - Ne mam hlad, nemam slad
TTITLE4=Highway - Taki dzień
TTITLE5=Katedra - Kłosy
TTITLE6=Hot Tamales - Workable
TTITLE7=Open Blues - Seta w ryja
TTITLE8=Mitch Laddie Band - Three
TTITLE9=The Cell - Give Me An Answer
TTITLE10=Hubert Szczęsny/Nie strzelać Do Pianisty - Lonely Like The Bl
TTITLE10=ues
TTITLE11=Ela Dębska Band - Spadłeś z ksieżyca
TTITLE12=Manfredi&Johnson - Brand new
TTITLE13=Black&Blues - Nie kochasz mnie
TTITLE14=Green Grass - Moje miejsce
TTITLE15=Krzysztof  Głuch Oscillate - Hold On Step Back Wait Out
TTITLE16=Ryan McGarvey - Little Red Riding Hood
EXTD=
EXTT0=
EXTT1=
EXTT2=
EXTT3=
EXTT4=
EXTT5=
EXTT6=
EXTT7=
EXTT8=
EXTT9=
EXTT10=
EXTT11=
EXTT12=
EXTT13=
EXTT14=
EXTT15=
EXTT16=
PLAYORDER=
